<?xml version="1.0" encoding="UTF-8" standalone="no"?>
<svg
   height="1024"
   preserveAspectRatio="none"
   style="display: block;"
   version="1.1"
   viewBox="0 0 2048 2048"
   width="1024"
   id="svg57"
   sodipodi:docname="k-hello.svg"
   inkscape:version="1.4 (e7c3feb100, 2024-10-09)"
   xmlns:inkscape="http://www.inkscape.org/namespaces/inkscape"
   xmlns:sodipodi="http://sodipodi.sourceforge.net/DTD/sodipodi-0.dtd"
   xmlns="http://www.w3.org/2000/svg"
   xmlns:svg="http://www.w3.org/2000/svg">
  <defs
     id="defs57" />
  <sodipodi:namedview
     id="namedview57"
     pagecolor="#ffffff"
     bordercolor="#000000"
     borderopacity="0.25"
     inkscape:showpageshadow="2"
     inkscape:pageopacity="0.0"
     inkscape:pagecheckerboard="0"
     inkscape:deskcolor="#d1d1d1"
     inkscape:zoom="0.33629004"
     inkscape:cx="816.25968"
     inkscape:cy="780.5762"
     inkscape:window-width="1366"
     inkscape:window-height="714"
     inkscape:window-x="0"
     inkscape:window-y="0"
     inkscape:window-maximized="1"
     inkscape:current-layer="svg57" />
  <path
     d="m 396.3731,879.52945 c 24.55359,-59.17429 81.33247,-84.94652 142.6527,-63.76892 33.00218,11.39805 47.36875,36.24299 60.58522,66.64985 30.04889,-4.65747 41.65267,3.54357 53.27348,31.02189 23.12934,0.75023 41.67925,0.061 63.90412,6.86816 l 5.25153,7.82212 c -113.54452,3.34934 -229.11117,0.54838 -342.84977,2.08119 -51.2494,0.69119 -109.56297,1.19198 -160.3782,-3.36077 39.06303,-4.92976 71.07688,-19.28491 106.61348,-13.5021 14.73217,-38.59838 33.93713,-39.36954 70.94744,-33.81142 z"
     fill="#fefefe"
     id="path57"
     style="stroke-width:1.90411" />
  <path
     d="m 1341.702,703.3086 c 10.3565,-4.003 14.7495,-7.0771 23.238,-12.30461 6.7024,-4.12823 38.5519,-29.30813 42.8937,-30.2473 l 0.8416,2.51368 c -2.9766,28.47879 -8.1702,52.37055 -14.2363,80.44699 l -0.5337,0.54297 c -43.294,140.80403 -127.3468,259.03937 -215.2486,374.62347 -35.5446,46.7427 -76.3444,115.0195 -91.72,171.7492 -5.5837,0.3593 -22.6632,0.7288 -28.1853,0.1027 -6.723,-0.5132 -32.3114,0.9853 -36.7352,-1.1701 0.8006,-15.5809 3.5924,-35.1238 5.4707,-50.7868 4.4752,-37.7001 9.6483,-75.318 15.5194,-112.8231 l 37.0534,-249.31817 0.2874,-0.87656 c 32.7322,-0.65485 85.3768,-16.34764 116.241,-27.0336 10.377,-3.59141 20.8874,-8.61261 31.2542,-12.31898 l 0.5645,-0.70104 c 9.1556,-29.24962 15.1396,-62.4345 19.471,-92.74543 l 0.3901,-0.7462 c 12.6659,-3.71253 21.4006,-6.48589 33.3583,-11.1304 12.0603,-4.68454 47.4407,-22.67444 57.5201,-23.89073 z"
     fill="#bf2d27"
     id="path4"
     style="fill:#f98834;fill-opacity:1;stroke-width:1.02641" />
  <path
     d="m 1080.3471,875.76097 c 32.7322,-0.65485 85.3768,-16.34764 116.241,-27.0336 10.377,-3.59141 20.8874,-8.61261 31.2542,-12.31898 -9.3711,40.04438 -28.6677,85.55337 -44.3307,123.76151 -43.7559,106.7262 -100.2906,217.1064 -124.7602,330.5658 -6.723,-0.5132 -32.3114,0.9853 -36.7352,-1.1701 0.8006,-15.5809 3.5924,-35.1238 5.4707,-50.7868 4.4752,-37.7001 9.6483,-75.318 15.5194,-112.8231 l 37.0534,-249.31817 z"
     fill="#afbb91"
     id="path5"
     style="fill:#fefefe;fill-opacity:1;stroke-width:1.02641" />
  <path
     d="m 1341.702,703.3086 c 10.3565,-4.003 14.7495,-7.0771 23.238,-12.30461 6.7024,-4.12823 38.5519,-29.30813 42.8937,-30.2473 l 0.8416,2.51368 c -2.9766,28.47879 -8.1702,52.37055 -14.2363,80.44699 l -0.5337,0.54297 c -8.1805,2.48699 -39.3731,28.19242 -49.3909,34.66496 -26.0298,16.81158 -69.8575,41.5142 -99.7671,50.30952 -4.2699,1.84343 -12.1117,5.41944 -16.3405,6.47254 9.1556,-29.24962 15.1396,-62.4345 19.471,-92.74543 l 0.3901,-0.7462 c 12.6659,-3.71253 21.4006,-6.48589 33.3583,-11.1304 12.0603,-4.68454 47.4407,-22.67444 57.5201,-23.89073 z"
     fill="#f34d2a"
     id="path6"
     style="fill:#f98834;fill-opacity:1;stroke-width:1.02641" />
  <path
     d="m 1248.2679,742.21572 c 12.6659,-3.71253 21.4006,-6.48589 33.3583,-11.1304 12.0603,-4.68454 47.4407,-22.67444 57.5201,-23.89073 -12.7686,33.7843 -39.9377,69.24166 -65.8135,94.64737 -9.1043,8.93285 -20.21,18.2619 -28.5855,27.39285 -4.2699,1.84343 -12.1117,5.41944 -16.3405,6.47254 9.1556,-29.24962 15.1396,-62.4345 19.471,-92.74543 z"
     fill="#ed732b"
     id="path7"
     style="fill:#f98834;fill-opacity:1;stroke-width:1.02641" />
  <path
     d="m 1532.5425,603.10321 c 2.7303,165.81663 -94.6863,320.35814 -209.1003,432.74389 -71.7564,70.4939 -171.2464,158.0981 -205.3027,255.4121 -5.0499,-1.2831 -24.8699,-0.7288 -31.2028,-0.6262 15.3756,-56.7297 56.1754,-125.0065 91.72,-171.7492 87.9018,-115.5841 171.9546,-233.81944 215.2486,-374.62347 l 0.5337,-0.54297 c 17.8493,-3.5093 82.8724,-74.79146 98.0325,-93.05644 8.396,-10.10912 29.8685,-45.06661 40.071,-47.55771 z"
     fill="#afbb91"
     id="path8"
     style="fill:#fefefe;fill-opacity:1;stroke-width:1.02641" />
  <path
     d="m 1345.0892,1086.6134 c 3.4795,-4.1775 11.9782,-9.4327 16.7305,-12.204 l -109.0869,229.8748 c -33.5021,72.2696 -66.9733,148.3779 -102.2716,219.4876 -2.9253,0.2053 -7.072,0.092 -10.1101,0.1027 7.1335,-12.3785 18.4138,-42.0521 25.1778,-56.5552 14.575,-31.2645 28.8421,-63.0627 43.1811,-94.4093 43.8072,-96.2156 89.2669,-191.6615 136.3792,-286.2966 z"
     fill="#305962"
     id="path10"
     style="stroke-width:1.02641" />
  <path
     d="m 1022.9297,90.418313 c 5.5837,-0.709249 13.99,0.07288 19.5428,1.297383 14.2466,0.173464 24.7571,1.489322 38.8907,2.97967 7.2362,-0.825234 49.8836,4.161069 55.611,6.940584 18.1161,2.36999 43.7251,9.93155 61.5846,15.43209 115.7278,35.63081 221.6739,101.1661 296.4376,197.44239 34.8262,44.85209 70.4426,105.02951 85.3461,159.83368 -6.0251,8.49047 -8.55,22.65904 -11.619,32.70657 -6.4048,21.06195 -20.559,69.01585 -36.8276,82.28221 l 0.6466,13.77032 c -10.2025,2.4911 -31.675,37.44859 -40.071,47.55771 -15.1601,18.26498 -80.1832,89.54714 -98.0325,93.05644 6.0661,-28.07644 11.2597,-51.9682 14.2363,-80.44699 l -0.8416,-2.51368 c -4.3418,0.93917 -36.1913,26.11907 -42.8937,30.2473 -8.4885,5.22751 -12.8815,8.30161 -23.238,12.30461 l -2.5557,3.88599 c -10.0794,1.21629 -45.4598,19.20619 -57.5201,23.89073 -11.9577,4.64451 -20.6924,7.41787 -33.3583,11.1304 25.7834,-178.9475 -1.2625,-397.87985 -102.5487,-552.43573 -25.7937,-39.35463 -76.7858,-85.62728 -122.7895,-99.361677 z"
     fill="#f98834"
     id="path11"
     style="stroke-width:1.02641" />
  <path
     d="m 1136.9742,101.63595 c 18.1161,2.36999 43.7251,9.93155 61.5846,15.43209 115.7278,35.63081 221.6739,101.1661 296.4376,197.44239 34.8262,44.85209 70.4426,105.02951 85.3461,159.83368 -6.0251,8.49047 -8.55,22.65904 -11.619,32.70657 -6.4048,21.06195 -20.559,69.01585 -36.8276,82.28221 l 0.6466,13.77032 c -10.2025,2.4911 -31.675,37.44859 -40.071,47.55771 -15.1601,18.26498 -80.1832,89.54714 -98.0325,93.05644 6.0661,-28.07644 11.2597,-51.9682 14.2363,-80.44699 1.1804,-5.07765 2.176,-22.67648 2.4223,-28.96222 1.8886,-48.77709 0.154,-99.14511 -7.7494,-147.34124 -3.0689,-18.6817 -8.6937,-37.01853 -12.2861,-55.61093 l 0.5543,-0.12932 0.7082,-1.67408 C 1383.2716,361.5498 1359.7361,305.89474 1321.297,249.75419 1271.865,177.56262 1217.6398,141.13737 1138.0314,108.672 l 4.8036,-2.45415 c -3.1306,-1.3138 -3.5925,-2.13185 -5.8608,-4.5819 z"
     fill="#b4bd9e"
     id="path12"
     style="fill:#fefefe;fill-opacity:1;stroke-width:1.02641" />
  <path
     d="m 1136.9742,101.63595 c 18.1161,2.36999 43.7251,9.93155 61.5846,15.43209 115.7278,35.63081 221.6739,101.1661 296.4376,197.44239 34.8262,44.85209 70.4426,105.02951 85.3461,159.83368 -6.0251,8.49047 -8.55,22.65904 -11.619,32.70657 -6.4048,21.06195 -20.559,69.01585 -36.8276,82.28221 -2.4326,-13.4819 -2.8432,-28.91399 -5.2347,-43.00866 -8.3344,-49.21536 -18.9065,-90.98308 -39.1781,-136.46026 -49.9349,-115.01341 -138.473,-208.96693 -250.3313,-265.62582 -21.8522,-10.91485 -44.8028,-20.09814 -67.5378,-29.06589 -8.396,-3.31531 -18.1161,-5.63602 -26.779,-8.95441 -3.1306,-1.3138 -3.5925,-2.13185 -5.8608,-4.5819 z"
     fill="#f34d2a"
     id="path13"
     style="fill:#f98834;fill-opacity:1;stroke-width:1.02641" />
  <path
     d="m 1042.4725,91.715696 c 14.2466,0.173464 24.7571,1.489322 38.8907,2.97967 7.2362,-0.825234 49.8836,4.161069 55.611,6.940584 2.2683,2.45005 2.7302,3.2681 5.8608,4.5819 l -4.8036,2.45415 c 79.6084,32.46537 133.8336,68.89062 183.2656,141.08219 38.4391,56.14055 61.9746,111.79561 71.0276,179.79839 l -0.7082,1.67408 -0.5543,0.12932 c -2.4223,-9.67186 -5.4092,-19.1949 -8.94,-28.52189 -10.726,-32.08252 -24.5107,-63.06164 -41.1488,-92.51142 -17.1616,-30.34069 -30.4228,-47.37603 -53.086,-73.39862 -72.2798,-83.00787 -142.3939,-116.54892 -245.4148,-145.208354 z"
     fill="#fefefe"
     id="path14"
     style="stroke-width:1.02641" />
  <path
     d="m 1081.3632,94.695366 c 7.2362,-0.825234 49.8836,4.161069 55.611,6.940584 2.2683,2.45005 2.7302,3.2681 5.8608,4.5819 l -4.8036,2.45415 c -15.6836,-6.30319 -39.5887,-10.61206 -56.6682,-13.976634 z"
     fill="#ed732b"
     id="path15"
     style="stroke-width:1.02641" />
  <path
     d="m 1382.1221,402.83409 c 3.5308,9.32699 6.5177,18.85003 8.94,28.52189 3.5924,18.5924 9.2172,36.92923 12.2861,55.61093 7.9034,48.19613 9.638,98.56415 7.7494,147.34124 -0.2463,6.28574 -1.2419,23.88457 -2.4223,28.96222 l -0.8416,-2.51368 c -4.3418,0.93917 -36.1913,26.11907 -42.8937,30.2473 -8.4885,5.22751 -12.8815,8.30161 -23.238,12.30461 26.3377,-62.27849 38.747,-99.11945 43.8483,-167.94643 1.3138,-19.57571 1.632,-39.20478 0.9751,-58.8123 -0.5235,-14.17371 -2.2068,-28.29609 -3.4282,-42.39076 -0.6159,-7.04939 -4.4136,-25.85426 -0.9751,-31.32502 z"
     fill="#ed732b"
     id="path16"
     style="fill:#f98834;fill-opacity:1;stroke-width:1.02641" />
  <path
     d="m 970.23483,90.862749 c 6.85848,-0.884766 11.51531,-1.864988 18.38199,-0.579922 -74.47224,23.381633 -125.25493,92.568893 -159.61299,158.768263 -73.10609,140.86049 -94.69972,339.36932 -69.34225,495.04398 -41.01536,-12.66898 -82.8067,-29.53085 -121.03844,-49.01315 -5.18645,-2.64301 -39.17809,-22.774 -40.81829,-22.80171 l -1.03976,2.27042 c -0.33461,-2.33509 -0.67024,-4.3058 -1.12802,-6.61933 -0.35514,0.52347 -0.96996,0.81292 -1.47701,1.18961 -23.63105,-12.81165 -115.05857,-71.1672 -114.01574,-96.40971 l -1.03051,6.1677 c -14.7875,-14.11315 -35.81557,-54.70358 -43.68814,-74.83663 -3.12542,-7.99163 -4.99452,-15.98326 -7.69911,-22.75552 l -0.64972,-1.5858 c 1.92658,-8.69267 12.39494,-34.08094 16.04896,-42.57038 33.81612,-78.37774 85.58006,-147.70972 151.11637,-202.40406 75.68855,-63.20123 160.39308,-105.28612 256.25675,-127.21333 12.58994,-2.87908 45.27701,-10.999014 57.2932,-9.914098 23.61976,-3.669418 38.45242,-6.924166 62.44271,-6.736333 z"
     fill="#f98834"
     id="path17"
     style="stroke-width:1.02641" />
  <path
     d="m 907.79212,97.599082 c 23.61976,-3.669418 38.45242,-6.924166 62.44271,-6.736333 -124.61752,27.835231 -219.68264,86.325231 -289.5966,194.811701 -69.61937,108.02869 -95.84314,255.3494 -85.00116,382.25685 -0.35514,0.52347 -0.96996,0.81292 -1.47701,1.18961 -23.63105,-12.81165 -115.05857,-71.1672 -114.01574,-96.40971 l -1.03051,6.1677 c -14.7875,-14.11315 -35.81557,-54.70358 -43.68814,-74.83663 -3.12542,-7.99163 -4.99452,-15.98326 -7.69911,-22.75552 l -0.64972,-1.5858 c 1.92658,-8.69267 12.39494,-34.08094 16.04896,-42.57038 33.81612,-78.37774 85.58006,-147.70972 151.11637,-202.40406 75.68855,-63.20123 160.39308,-105.28612 256.25675,-127.21333 12.58994,-2.87908 45.27701,-10.999014 57.2932,-9.914098 z"
     fill="#fefefe"
     id="path18"
     style="stroke-width:1.02641" />
  <path
     d="m 427.07684,479.70095 c 1.92658,-8.69267 12.39494,-34.08094 16.04896,-42.57038 33.81612,-78.37774 85.58006,-147.70972 151.11637,-202.40406 75.68855,-63.20123 160.39308,-105.28612 256.25675,-127.21333 12.58994,-2.87908 45.27701,-10.999014 57.2932,-9.914098 -28.16573,7.602618 -52.09649,12.460628 -79.67614,23.295418 -190.14871,74.70011 -332.8824,243.59391 -347.97166,451.8167 l -1.03051,6.1677 c -14.7875,-14.11315 -35.81557,-54.70358 -43.68814,-74.83663 -3.12542,-7.99163 -4.99452,-15.98326 -7.69911,-22.75552 z"
     fill="#f98834"
     id="path19"
     style="stroke-width:1.02641" />
  <path
     d="m 1004.2387,89.997485 c 7.4928,-0.28021 11.2495,-0.256603 18.691,0.420828 46.0037,13.734397 96.9958,60.007047 122.7895,99.361677 101.2862,154.55588 128.3321,373.48823 102.5487,552.43573 l -0.3901,0.7462 c -4.3314,30.31093 -10.3154,63.49581 -19.471,92.74543 l -0.5645,0.70104 c -10.3668,3.70637 -20.8772,8.72757 -31.2542,12.31898 -30.8642,10.68596 -83.5088,26.37875 -116.241,27.0336 3.5001,-29.17983 6.8462,-62.59462 7.7905,-91.9592 l 0.739,-7.14382 c -0.041,-12.62074 1.8988,-27.14343 2.371,-39.41827 5.481,-141.31826 22.3039,-551.95024 -87.0089,-647.242195 z"
     fill="#fefefe"
     id="path20"
     style="stroke-width:1.02641" />
  <path
     d="m 1088.8766,776.65795 c 14.185,-2.62145 31.48,-3.34302 46.5785,-5.92034 37.2074,-6.35348 76.8371,-15.39205 112.4227,-27.77569 -4.3314,30.31093 -10.3154,63.49581 -19.471,92.74543 l -0.5645,0.70104 c -10.3668,3.70637 -20.8772,8.72757 -31.2542,12.31898 -30.8642,10.68596 -83.5088,26.37875 -116.241,27.0336 3.5001,-29.17983 6.8462,-62.59462 7.7905,-91.9592 z"
     fill="#ece4c8"
     id="path21"
     style="fill:#fefefe;fill-opacity:1;stroke-width:1.02641" />
  <path
     d="m 988.61682,90.282827 c 4.8344,-0.461885 8.37551,-0.421855 13.18938,-0.403379 C 895.82212,194.26848 906.29561,626.82869 915.56615,775.35954 877.45348,774.7088 830.14622,762.1209 792.67813,754.28528 781.91519,752.03436 770.82688,746.3696 759.66158,744.09507 734.30411,588.42041 755.89774,389.91158 829.00383,249.05109 863.36189,182.85172 914.14458,113.66446 988.61682,90.282827 Z"
     fill="#fefefe"
     id="path22"
     style="stroke-width:1.02641" />
  <path
     d="m 479.11381,578.8789 1.03051,-6.1677 c -1.04283,25.24251 90.38469,83.59806 114.01574,96.40971 0.50705,-0.37669 1.12187,-0.66614 1.47701,-1.18961 0.45778,2.31353 0.79341,4.28424 1.12802,6.61933 2.99199,22.07706 10.60796,59.77712 17.31247,81.17676 7.7145,30.67222 32.52798,80.96018 47.68088,108.55626 30.02969,54.64302 63.03392,107.59657 98.86489,158.62045 12.84963,18.4138 28.1996,36.0989 40.56067,53.4863 41.67124,58.6388 102.36905,144.5288 119.29661,214.2837 l -28.63172,0.1232 C 862.87742,1216.013 797.01882,1148.352 741.66758,1090.8525 l -76.10219,-79.5263 C 572.60544,913.47745 504.43433,800.48505 483.19276,665.97086 478.5657,636.66376 478.3481,608.44979 479.11381,578.8789 Z"
     fill="#ece4c8"
     id="path23"
     style="fill:#fefefe;fill-opacity:1;stroke-width:1.02641" />
  <path
     d="m 759.66158,744.09507 c 11.1653,2.27453 22.25361,7.93929 33.01655,10.19021 37.46809,7.83562 84.77535,20.42352 122.88802,21.07426 l 0.43828,5.48719 c 3.96195,63.37059 13.69642,117.40084 24.0642,179.30264 l 26.11496,163.20953 c 8.13328,51.4437 18.32759,116.4155 21.77633,168.1466 -8.95543,-1.1906 -26.71028,-0.7185 -36.30312,-0.7185 -6.27239,-26.4711 -13.73337,-58.6286 -22.52252,-84.2991 -25.18915,-73.5936 -59.34706,-145.35 -89.64669,-216.69579 -19.20415,-46.05607 -37.17044,-92.61406 -53.87937,-139.62777 -1.46367,-7.72066 -9.46043,-31.1649 -12.06649,-40.08236 -6.26931,-21.61723 -10.90971,-43.67479 -13.88015,-65.98691 z"
     fill="#ece4c8"
     id="path24"
     style="fill:#fefefe;fill-opacity:1;stroke-width:1.02641" />
  <path
     d="m 1010.7051,1331.9665 c 5.2963,0.082 15.078,-0.021 19.974,0.5645 -6.5075,0.092 -13.0252,0.154 -19.5326,0.1643 l 53.0552,125.1605 c 8.8579,21.1338 19.2144,44.6899 26.9535,66.1624 -3.1921,0.2155 -5.9327,0.041 -9.1248,-0.062 -4.2904,-13.251 -69.4059,-170.4252 -73.2652,-172.6115 -2.1452,-5.286 -1.7551,-14.5955 1.9399,-19.3786 z"
     fill="#305962"
     id="path28"
     style="stroke-width:1.02641" />
  <path
     d="m 1106.2332,1332.2231 7.3491,0.2977 c -0.8314,64.3559 -0.1745,127.0696 0.062,191.4255 l -7.1541,0.1437 c 0.01,-64.3456 -0.8827,-127.1928 -0.2566,-191.8669 z"
     fill="#305962"
     id="path29"
     style="stroke-width:1.02641" />
  <path
     d="m 993.46148,1331.946 c 5.81975,-0.1335 11.41362,-0.3387 17.24362,0.021 -3.695,4.7831 -4.0851,14.0926 -1.9399,19.3786 l 0.4208,172.3446 -9.72002,-0.1026 0.22581,-116.046 c 0.0719,-22.581 0.62611,-47.2559 -0.1129,-69.7035 l -73.91696,185.5442 -8.6742,-0.041 c 9.59284,-21.1646 19.83128,-50.4789 28.80827,-72.9676 15.76874,-39.5065 32.30422,-78.8694 47.66548,-118.4272 z"
     fill="#305962"
     id="path31"
     style="stroke-width:1.02641;fill:#799204;fill-opacity:1" />
  <path
     d="m 893.90479,1332.6439 7.23516,-0.2771 c 0.66204,63.5861 -1.32201,128.1987 -0.43725,191.0561 l -7.04836,-0.1027 c 0.83961,-21.7701 0.31408,-46.5477 0.33564,-68.4924 z"
     fill="#305962"
     id="path32"
     style="stroke-width:1.02641" />
  <path
     d="m 650.96265,1067.9327 c 6.38017,4.4752 10.30516,7.6365 16.23063,12.7173 41.44338,105.6484 86.45354,209.8599 134.95041,312.4598 13.72003,28.606 29.21575,57.6329 43.41717,86.085 7.3142,14.6469 16.62784,29.6222 23.92664,44.2486 -4.30066,0.2669 -9.17097,0 -13.52501,-0.1232 -0.0606,-1.5293 -48.94746,-95.5896 -53.70795,-105.4534 -42.9912,-87.3681 -82.45156,-176.4193 -118.28663,-266.959 -10.91177,-27.1383 -23.04702,-55.5494 -33.00526,-82.9751 z"
     fill="#305962"
     id="path34"
     style="stroke-width:1.02641" />
  <path
     d="m 1007.9851,883.17166 c 22.0781,-0.0975 50.2736,-3.56678 72.0746,-6.53413 l -37.0534,249.31817 c -5.8711,37.5051 -11.0442,75.123 -15.5194,112.8231 -1.8783,15.663 -4.6701,35.2059 -5.4707,50.7868 l 0.3182,1.5293 -14.6469,-0.062 z"
     fill="#bf2d27"
     id="path35"
     style="fill:#f98834;fill-opacity:1;stroke-width:1.02641" />
  <path
     d="m 596.76509,674.55063 1.03976,-2.27042 c 1.6402,0.0277 35.63184,20.1587 40.81829,22.80171 38.23174,19.4823 80.02308,36.34417 121.03844,49.01315 2.97044,22.31212 7.61084,44.36968 13.88015,65.98691 2.60606,8.91746 10.60282,32.3617 12.06649,40.08236 -35.67804,-6.04453 -115.14993,-52.57275 -145.73902,-74.24848 -9.09194,-6.44278 -17.22111,-13.54349 -25.79164,-20.18847 -6.70451,-21.39964 -14.32048,-59.0997 -17.31247,-81.17676 z"
     fill="#ed732b"
     id="path36"
     style="fill:#f98834;fill-opacity:1;stroke-width:1.02641" />
  <path
     d="m 870.72536,1304.0173 c 15.05231,0.4003 30.22676,1.7552 45.30473,1.8578 54.33407,0.2669 108.72661,0.4517 163.06481,0.3285 16.4431,-0.041 43.9201,1.6115 58.6593,-3.541 -3.4487,13.2508 -7.4928,30.5459 -24.1719,29.8582 l -7.3491,-0.2977 c -22.5297,-0.8827 -52.3572,0.2258 -75.5541,0.3079 -4.896,-0.585 -14.6777,-0.4824 -19.974,-0.5645 -5.83,-0.3592 -11.42387,-0.154 -17.24362,-0.021 -28.97968,-0.041 -63.97617,1.1701 -92.32153,0.4208 l -7.23516,0.2771 c -18.10999,-0.6979 -19.45562,-13.3741 -23.17943,-28.6266 z"
     fill="#bf2d27"
     id="path37"
     style="stroke-width:1.02641" />
  <path
     d="m 757.48457,1522.5196 98.47792,0.8006 c 4.35404,0.1232 9.22435,0.3901 13.52501,0.1232 7.78225,-0.072 16.4585,-0.349 24.16684,-0.1232 l 7.04836,0.1027 16.28503,-0.082 8.6742,0.041 c 24.59998,-0.2669 49.20202,-0.2053 73.80405,0.2053 l 9.72002,0.1026 c 20.8362,0.01 52.8705,-0.9545 72.8444,0.2669 3.1921,0.1026 5.9327,0.2771 9.1248,0.062 4.8857,-0.01 10.5104,-0.1642 15.3346,0.072 l 7.1541,-0.1437 c 8.7347,-0.041 18.0237,-0.2463 26.7072,-0.072 3.0381,-0.01 7.1848,0.1026 10.1101,-0.1027 33.5123,0.021 68.5437,0.5543 101.9328,-0.2566 0.031,11.1366 0.2566,22.8069 -0.041,33.9024 l -0.2053,23.7306 c -10.5104,0.031 -24.2643,-0.3285 -34.5182,0.4311 -9.6996,85.89 -25.9784,136.4715 -70.2065,212.118 l -0.6261,-0.154 c -16.5457,-0.01 -44.6078,0.8417 -60.3837,-0.7492 l -13.056,-0.072 c -9.8227,-0.051 -19.6352,-0.1847 -29.4477,-0.39 -3.5411,-0.3695 -6.3945,-0.1437 -9.9151,0.01 -10.9929,0.7391 -26.9535,0.3285 -38.34667,0.3388 l -8.49868,-0.031 -26.27919,0.4413 c -6.3001,-0.031 -16.72843,0.6672 -22.12325,0.2771 -7.19616,0.021 -14.39233,-0.01 -21.58849,-0.082 l -9.97363,-0.39 c -15.64455,-0.01 -31.285,-0.4208 -46.90799,-1.2317 -6.35348,-8.1702 -13.97149,-23.0326 -19.13229,-32.2703 -23.29336,-41.7134 -38.49553,-82.5953 -47.70653,-129.5125 -3.35329,-17.0795 -6.81229,-30.5357 -7.56362,-48.5287 -9.16277,-0.2361 -18.88596,-0.1129 -28.09799,-0.1437 l -0.25147,-23.9359 z"
     fill="#fdce54"
     id="path38"
     style="stroke-width:1.02641" />
  <path
     d="m 838.50223,1581.2098 16.57756,0.051 58.34732,-0.01 8.95031,0.01 60.65573,0.031 c 0.67743,70.4631 2.05282,140.9159 4.1159,211.3585 l -26.27919,0.4413 c -6.3001,-0.031 -16.72843,0.6672 -22.12325,0.2771 -7.19616,0.021 -14.39233,-0.01 -21.58849,-0.082 l -9.97363,-0.39 c -15.64455,-0.01 -31.285,-0.4208 -46.90799,-1.2317 -6.35348,-8.1702 -13.97149,-23.0326 -19.13229,-32.2703 -23.29336,-41.7134 -38.49553,-82.5953 -47.70653,-129.5125 -3.35329,-17.0795 -6.81229,-30.5357 -7.56362,-48.5287 16.9214,0 35.87099,0.4208 52.62817,-0.1437 z"
     fill="#fdce54"
     id="path39"
     style="stroke-width:1.02641" />
  <path
     d="m 838.50223,1581.2098 16.57756,0.051 c 8.95953,89.9957 24.66874,130.1797 62.07833,212.0256 l -9.97363,-0.39 c -15.64455,-0.01 -31.285,-0.4208 -46.90799,-1.2317 -6.35348,-8.1702 -13.97149,-23.0326 -19.13229,-32.2703 -23.29336,-41.7134 -38.49553,-82.5953 -47.70653,-129.5125 -3.35329,-17.0795 -6.81229,-30.5357 -7.56362,-48.5287 16.9214,0 35.87099,0.4208 52.62817,-0.1437 z"
     fill="#fdce54"
     id="path40"
     style="stroke-width:1.02641" />
  <path
     d="m 838.50223,1581.2098 16.57756,0.051 c 8.95953,89.9957 24.66874,130.1797 62.07833,212.0256 l -9.97363,-0.39 c -30.95655,-57.3045 -54.215,-127.3776 -60.34575,-192.2878 -0.51629,-5.4605 0.51423,-13.0046 -2.45825,-17.7774 -0.79547,-1.2727 -4.24216,-1.3651 -5.87826,-1.6217 z"
     fill="#d58b0e"
     id="path41"
     style="stroke-width:1.02641" />
  <path
     d="m 922.37742,1581.2611 60.65573,0.031 c 0.67743,70.4631 2.05282,140.9159 4.1159,211.3585 l -26.27919,0.4413 c -2.16162,-6.9898 -4.36224,-14.2876 -6.04145,-21.4109 -14.68588,-62.3237 -27.72951,-126.4333 -32.45099,-190.4197 z"
     fill="#fdce54"
     id="path42"
     style="stroke-width:1.02641" />
  <path
     d="m 913.42711,1581.2508 8.95031,0.01 c 4.72148,63.9864 17.76511,128.096 32.45099,190.4197 1.67921,7.1233 3.87983,14.4211 6.04145,21.4109 -6.3001,-0.031 -16.72843,0.6672 -22.12325,0.2771 3.63144,-0.1744 7.66113,0.051 10.65825,-1.7449 -0.82729,-7.0309 -5.36505,-20.8977 -7.42813,-28.257 -2.91501,-10.3976 -4.85698,-19.3171 -7.07608,-29.8788 -10.96617,-50.1299 -18.14386,-101.0194 -21.47354,-152.2373 z"
     fill="#d58b0e"
     id="path43"
     style="stroke-width:1.02641" />
  <path
     d="m 757.48457,1522.5196 98.47792,0.8006 c 4.35404,0.1232 9.22435,0.3901 13.52501,0.1232 7.78225,-0.072 16.4585,-0.349 24.16684,-0.1232 l 7.04836,0.1027 16.28503,-0.082 8.6742,0.041 c 24.59998,-0.2669 49.20202,-0.2053 73.80405,0.2053 l 9.72002,0.1026 c 20.8362,0.01 52.8705,-0.9545 72.8444,0.2669 3.1921,0.1026 5.9327,0.2771 9.1248,0.062 4.8857,-0.01 10.5104,-0.1642 15.3346,0.072 l 7.1541,-0.1437 c 8.7347,-0.041 18.0237,-0.2463 26.7072,-0.072 3.0381,-0.01 7.1848,0.1026 10.1101,-0.1027 33.5123,0.021 68.5437,0.5543 101.9328,-0.2566 0.031,11.1366 0.2566,22.8069 -0.041,33.9024 l -0.2053,23.7306 c -10.5104,0.031 -24.2643,-0.3285 -34.5182,0.4311 -9.9254,1.1906 -34.8364,0.3284 -45.3879,0.195 -19.7173,-0.6466 -40.4816,-0.3284 -60.3119,-0.4003 l -128.89655,-0.082 -60.65573,-0.031 -8.95031,-0.01 -58.34732,0.01 -16.57756,-0.051 c -16.75718,0.5645 -35.70677,0.1437 -52.62817,0.1437 -9.16277,-0.2361 -18.88596,-0.1129 -28.09799,-0.1437 l -0.25147,-23.9359 z"
     fill="#9f661e"
     id="path44"
     style="stroke-width:1.02641" />
  <path
     d="m 757.5246,1557.2739 494.8284,0.1437 -0.2053,23.7306 c -10.5104,0.031 -24.2643,-0.3285 -34.5182,0.4311 -9.9254,1.1906 -34.8364,0.3284 -45.3879,0.195 -19.7173,-0.6466 -40.4816,-0.3284 -60.3119,-0.4003 l -128.89655,-0.082 -60.65573,-0.031 -8.95031,-0.01 -58.34732,0.01 -16.57756,-0.051 c -16.75718,0.5645 -35.70677,0.1437 -52.62817,0.1437 -9.16277,-0.2361 -18.88596,-0.1129 -28.09799,-0.1437 z"
     fill="#653f10"
     id="path45"
     style="stroke-width:1.02641" />
  <path
     d="m 1111.9297,1581.374 c 19.8303,0.072 40.5946,-0.2463 60.3119,0.4003 10.5515,0.1334 35.4625,0.9956 45.3879,-0.195 -9.6996,85.89 -25.9784,136.4715 -70.2065,212.118 l -0.6261,-0.154 c -16.5457,-0.01 -44.6078,0.8417 -60.3837,-0.7492 l -13.056,-0.072 c 20.8978,-57.7253 36.6224,-149.004 39.4245,-210.4347 l -1.0983,-0.195 z"
     fill="#d58b0e"
     id="path46"
     style="stroke-width:1.02641" />
  <path
     d="m 1172.2416,1581.7743 c 10.5515,0.1334 35.4625,0.9956 45.3879,-0.195 -9.6996,85.89 -25.9784,136.4715 -70.2065,212.118 l -0.6261,-0.154 c -5.3476,-1.5396 -26.5738,-0.9751 -33.7381,-0.9135 23.823,-47.8615 41.2514,-95.5588 51.1152,-148.3368 3.8183,-20.4256 5.1937,-41.8878 8.0676,-62.5187 z"
     fill="#d58b0e"
     id="path47"
     style="stroke-width:1.02641" />
  <path
     d="m 1111.9297,1581.374 c 19.8303,0.072 40.5946,-0.2463 60.3119,0.4003 -2.8739,20.6309 -4.2493,42.0931 -8.0676,62.5187 -9.8638,52.778 -27.2922,100.4753 -51.1152,148.3368 7.1643,-0.062 28.3905,-0.6261 33.7381,0.9135 -16.5457,-0.01 -44.6078,0.8417 -60.3837,-0.7492 4.8138,-0.2669 11.9269,-0.01 16.9255,0.041 33.307,-65.485 52.7678,-137.1387 57.1608,-210.4757 l -47.7178,-0.072 -1.0983,-0.195 z"
     fill="#9f661e"
     id="path48"
     style="stroke-width:1.02641" />
  <path
     d="m 1111.6834,1582.0925 1.0983,0.195 c -2.8021,61.4307 -18.5267,152.7094 -39.4245,210.4347 -9.8227,-0.051 -19.6352,-0.1847 -29.4477,-0.39 0.9546,-9.0324 2.7303,-19.625 4.352,-28.5753 11.0031,-60.6711 15.2217,-120.1414 17.8595,-181.6028 z"
     fill="#fdce54"
     id="path49"
     style="stroke-width:1.02641" />
  <path
     d="m 983.03315,1581.2919 128.89655,0.082 -0.2463,0.7185 -45.5624,0.062 c -2.6378,61.4614 -6.8564,120.9317 -17.8595,181.6028 -1.6217,8.9503 -3.3974,19.5429 -4.352,28.5753 -3.5411,-0.3695 -6.3945,-0.1437 -9.9151,0.01 11.9577,-70.2064 20.4974,-138.9144 22.037,-210.2294 l -63.07286,-0.1539 c 2.05282,68.3281 1.95018,141.9628 2.68919,210.7221 l -8.49868,-0.031 c -2.06308,-70.4426 -3.43847,-140.8954 -4.1159,-211.3585 z"
     fill="#d58b0e"
     id="path50"
     style="stroke-width:1.02641" />
  <path
     d="m 860.2765,1791.665 c 15.62299,0.8109 31.26344,1.2214 46.90799,1.2317 l 9.97363,0.39 c 7.19616,0.072 14.39233,0.1027 21.58849,0.082 5.39482,0.3901 15.82315,-0.3079 22.12325,-0.2771 l 26.27919,-0.4413 8.49868,0.031 c 11.39317,-0.01 27.35377,0.4003 38.34667,-0.3388 3.5206,-0.1539 6.374,-0.3797 9.9151,-0.01 9.8125,0.2053 19.625,0.3387 29.4477,0.39 l 13.056,0.072 c 15.7759,1.5909 43.838,0.739 60.3837,0.7492 l 0.6261,0.154 c -11.6292,19.0194 -31.1413,44.7412 -45.2852,62.2107 -5.0705,5.6761 -35.5343,40.4919 -36.9097,45.0697 -6.9694,1.4473 -50.9305,0.8109 -60.5069,0.7801 l -2.72,0.39 c -11.96793,-0.02 -52.26276,0.4209 -61.54869,-1.324 -3.29273,-6.1174 -28.92836,-36.3555 -34.34268,-42.945 -15.39102,-21.5444 -31.81051,-43.8688 -45.83333,-66.2138 z"
     fill="#f34d2a"
     id="path52"
     style="stroke-width:1.02641" />
  <path
     d="m 1073.3572,1792.7222 13.056,0.072 c 15.7759,1.5909 43.838,0.739 60.3837,0.7492 l 0.6261,0.154 c -11.6292,19.0194 -31.1413,44.7412 -45.2852,62.2107 -5.0705,5.6761 -35.5343,40.4919 -36.9097,45.0697 -6.9694,1.4473 -50.9305,0.8109 -60.5069,0.7801 37.1766,-32.8965 53.3117,-62.4879 68.636,-109.0356 z"
     fill="#bf2d27"
     id="path53"
     style="fill:#f34d2a;fill-opacity:1;stroke-width:1.02641" />
  <path
     d="m 1065.2281,1900.9777 c 4.003,4.6599 2.915,30.0123 -0.8417,35.5036 -6.8564,3.6643 -52.4188,1.6936 -62.5597,1.8065 -0.1334,-12.0501 -0.072,-24.1002 0.1745,-36.14 l 2.72,-0.39 c 9.5764,0.031 53.5375,0.6672 60.5069,-0.7801 z"
     fill="#018091"
     id="path54"
     style="stroke-width:1.02641" />
  <path
     d="m 940.45251,1900.8238 c 9.28593,1.7449 49.58076,1.3035 61.54869,1.324 -0.2464,12.0398 -0.3079,24.0899 -0.1745,36.14 -14.88293,0.082 -48.75037,1.0572 -61.561,-1.6115 -0.4701,-10.1512 -0.65793,-25.8553 0.18681,-35.8525 z"
     fill="#0a98a2"
     id="path55"
     style="stroke-width:1.02641" />
  <path
     d="m 1348.0311,909.49173 c 79.5774,-8.86082 124.1274,24.51701 164.9667,88.31315 26.1533,0.93876 42.5829,15.15542 55.4361,36.94982 -0.1118,22.9121 2.4588,19.8273 23.0462,14.0602 27.7626,-7.7566 51.01,0.693 59.5042,30.3333 28.4109,0 82.1705,10.7296 111.5426,16.0496 -38.6487,3.2636 -91.0671,2.0565 -131.1017,2.5036 l -255.8103,1.6318 c -77.7669,0.4024 -155.5561,0.4024 -233.3229,-0.023 -66.5902,-0.2235 -126.5416,0.2459 -192.81895,-4.0906 42.2029,-6.9519 84.07045,-12.0708 125.49105,-22.9345 16.6084,-4.3364 33.731,-5.6776 50.8312,-6.7953 2.4141,-16.6085 7.1083,-33.731 19.0002,-46.2712 24.5215,-25.88506 49.5572,-14.4178 73.8775,-16.139 9.5671,-8.65078 15.2672,-24.94627 24.1861,-36.45813 25.9968,-33.48513 64.7574,-50.35958 105.172,-57.13037 z"
     fill="#fefefe"
     id="path56"
     style="stroke-width:2.23533" />
  <metadata
     id="metadata57">
    <recraft-signature>{&quot;signed_by&quot;: &quot;recraft&quot;, &quot;signature_b64&quot;: &quot;l+B4FGcnQpTYsDhf/+sXl3hZ/zAoH8YypeFiCYTW4HctXuRzjdTuj2E93vUTkCIlneP+oleXb4bdepshzMs8Bw==&quot;, &quot;signing_algo&quot;: &quot;Ed25519&quot;, &quot;generation_timestamp&quot;: 1779428725, &quot;identifier&quot;: &quot;01615ced-ae9a-4b6b-b1e8-de9faabd09a6&quot;}</recraft-signature>
  </metadata>
  <path
     d="m 396.3731,879.52945 c 24.55359,-59.17429 81.33247,-84.94652 142.6527,-63.76892 33.00218,11.39805 47.36875,36.24299 60.58522,66.64985 30.04889,-4.65747 41.65267,3.54357 53.27348,31.02189 23.12934,0.75023 41.67925,0.061 63.90412,6.86816 l 5.25153,7.82212 c -113.54452,3.34934 -229.11117,0.54838 -342.84977,2.08119 -51.2494,0.69119 -109.56297,1.19198 -160.3782,-3.36077 39.06303,-4.92976 71.07688,-19.28491 106.61348,-13.5021 14.73217,-38.59838 33.93713,-39.36954 70.94744,-33.81142 z"
     fill="#fefefe"
     id="path113"
     style="stroke-width:1.90411" />
  <path
     d="m 970.23483,90.862749 c 6.85848,-0.884766 11.51531,-1.864988 18.38199,-0.579922 4.8344,-0.461885 8.37551,-0.421855 13.18938,-0.403379 l 2.4325,0.118037 c 7.4928,-0.28021 11.2495,-0.256603 18.691,0.420828 5.5837,-0.709249 13.99,0.07288 19.5428,1.297383 14.2466,0.173464 24.7571,1.489322 38.8907,2.97967 7.2362,-0.825234 49.8836,4.161069 55.611,6.940584 18.1161,2.36999 43.7251,9.93155 61.5846,15.43209 115.7278,35.63081 221.6739,101.1661 296.4376,197.44239 34.8262,44.85209 70.4426,105.02951 85.3461,159.83368 43.8072,138.69886 27.8157,257.66498 -38.7983,386.64065 -32.568,63.04522 -75.4412,112.57364 -124.8013,163.66424 -16.9871,17.5927 -65.2926,5.4784 -82.3926,22.291 l -199.1257,258.4888 c -69.0152,33.9037 -261.32669,15.3681 -259.71824,12.4798 -42.99118,-87.368 -73.15215,-107.2155 -140.28115,-176.7127 -33.03338,-28.2174 -74.30432,-45.8375 -84.26256,-73.2632 -9.94079,-10.7157 -37.19096,-31.9726 -50.0796,-43.6327 C 550.5448,978.74074 520.37243,941.01194 483.97181,885.15981 l -2.83084,-4.21649 c -13.2951,-24.09191 -26.23814,-47.10404 -37.15196,-72.37837 -38.2574,-88.37908 -48.67034,-186.32021 -29.85007,-280.76743 3.05973,-14.59966 7.48869,-34.4217 12.9379,-48.09657 1.92658,-8.69267 12.39494,-34.08094 16.04896,-42.57038 33.81612,-78.37774 85.58006,-147.70972 151.11637,-202.40406 75.68855,-63.20123 160.39308,-105.28612 256.25675,-127.21333 12.58994,-2.87908 45.27701,-10.999014 57.2932,-9.914098 23.61976,-3.669418 38.45242,-6.924166 62.44271,-6.736333 z"
     fill="#f34d2a"
     id="path114"
     style="fill:#98b605;fill-opacity:1;stroke-width:1.02641"
     sodipodi:nodetypes="ccccccccccccccccccccccccccccc" />
  <path
     d="m 1341.702,703.3086 c 10.3565,-4.003 14.7495,-7.0771 23.238,-12.30461 6.7024,-4.12823 38.5519,-29.30813 42.8937,-30.2473 l 0.8416,2.51368 c -2.9766,28.47879 -8.1702,52.37055 -14.2363,80.44699 l -0.5337,0.54297 c -43.294,140.80403 -127.3468,259.03937 -215.2486,374.62347 -35.5446,46.7427 -76.3444,115.0195 -91.72,171.7492 -5.5837,0.3593 -22.6632,0.7288 -28.1853,0.1027 -6.723,-0.5132 -32.3114,0.9853 -36.7352,-1.1701 0.8006,-15.5809 3.5924,-35.1238 5.4707,-50.7868 4.4752,-37.7001 9.6483,-75.318 15.5194,-112.8231 l 37.0534,-249.31817 0.2874,-0.87656 c 32.7322,-0.65485 85.3768,-16.34764 116.241,-27.0336 10.377,-3.59141 20.8874,-8.61261 31.2542,-12.31898 l 0.5645,-0.70104 c 9.1556,-29.24962 15.1396,-62.4345 19.471,-92.74543 l 0.3901,-0.7462 c 12.6659,-3.71253 21.4006,-6.48589 33.3583,-11.1304 12.0603,-4.68454 47.4407,-22.67444 57.5201,-23.89073 z"
     fill="#bf2d27"
     id="path116"
     style="fill:#98b605;fill-opacity:1;stroke-width:1.02641" />
  <path
     d="m 1080.3471,875.76097 c 32.7322,-0.65485 85.3768,-16.34764 116.241,-27.0336 10.377,-3.59141 20.8874,-8.61261 31.2542,-12.31898 -9.3711,40.04438 -28.6677,85.55337 -44.3307,123.76151 -43.7559,106.7262 -100.2906,217.1064 -124.7602,330.5658 -6.723,-0.5132 -32.3114,0.9853 -36.7352,-1.1701 0.8006,-15.5809 3.5924,-35.1238 5.4707,-50.7868 4.4752,-37.7001 9.6483,-75.318 15.5194,-112.8231 l 37.0534,-249.31817 z"
     fill="#afbb91"
     id="path117"
     style="fill:#fefefe;fill-opacity:1;stroke-width:1.02641" />
  <path
     d="m 1341.702,703.3086 c 10.3565,-4.003 14.7495,-7.0771 23.238,-12.30461 6.7024,-4.12823 38.5519,-29.30813 42.8937,-30.2473 l 0.8416,2.51368 c -2.9766,28.47879 -8.1702,52.37055 -14.2363,80.44699 l -0.5337,0.54297 c -8.1805,2.48699 -39.3731,28.19242 -49.3909,34.66496 -26.0298,16.81158 -69.8575,41.5142 -99.7671,50.30952 -4.2699,1.84343 -12.1117,5.41944 -16.3405,6.47254 9.1556,-29.24962 15.1396,-62.4345 19.471,-92.74543 l 0.3901,-0.7462 c 12.6659,-3.71253 21.4006,-6.48589 33.3583,-11.1304 12.0603,-4.68454 47.4407,-22.67444 57.5201,-23.89073 z"
     fill="#f34d2a"
     id="path118"
     style="fill:#98b605;fill-opacity:1;stroke-width:1.02641" />
  <path
     d="m 1248.2679,742.21572 c 12.6659,-3.71253 21.4006,-6.48589 33.3583,-11.1304 12.0603,-4.68454 47.4407,-22.67444 57.5201,-23.89073 -12.7686,33.7843 -39.9377,69.24166 -65.8135,94.64737 -9.1043,8.93285 -20.21,18.2619 -28.5855,27.39285 -4.2699,1.84343 -12.1117,5.41944 -16.3405,6.47254 9.1556,-29.24962 15.1396,-62.4345 19.471,-92.74543 z"
     fill="#ed732b"
     id="path119"
     style="fill:#98b605;fill-opacity:1;stroke-width:1.02641" />
  <path
     d="m 1532.5425,603.10321 c 2.7303,165.81663 -94.6863,320.35814 -209.1003,432.74389 -71.7564,70.4939 -171.2464,158.0981 -205.3027,255.4121 -5.0499,-1.2831 -24.8699,-0.7288 -31.2028,-0.6262 15.3756,-56.7297 56.1754,-125.0065 91.72,-171.7492 87.9018,-115.5841 171.9546,-233.81944 215.2486,-374.62347 l 0.5337,-0.54297 c 17.8493,-3.5093 82.8724,-74.79146 98.0325,-93.05644 8.396,-10.10912 29.8685,-45.06661 40.071,-47.55771 z"
     fill="#afbb91"
     id="path120"
     style="fill:#fefefe;fill-opacity:1;stroke-width:1.02641" />
  <path
     d="m 1345.0892,1086.6134 c 3.4795,-4.1775 11.9782,-9.4327 16.7305,-12.204 l -109.0869,229.8748 c -33.5021,72.2696 -66.9733,148.3779 -102.2716,219.4876 -2.9253,0.2053 -7.072,0.092 -10.1101,0.1027 7.1335,-12.3785 18.4138,-42.0521 25.1778,-56.5552 14.575,-31.2645 28.8421,-63.0627 43.1811,-94.4093 43.8072,-96.2156 89.2669,-191.6615 136.3792,-286.2966 z"
     fill="#305962"
     id="path122"
     style="stroke-width:1.02641;fill:#799204;fill-opacity:1" />
  <path
     d="m 1022.9297,90.418313 c 5.5837,-0.709249 13.99,0.07288 19.5428,1.297383 14.2466,0.173464 24.7571,1.489322 38.8907,2.97967 7.2362,-0.825234 49.8836,4.161069 55.611,6.940584 18.1161,2.36999 43.7251,9.93155 61.5846,15.43209 115.7278,35.63081 221.6739,101.1661 296.4376,197.44239 34.8262,44.85209 70.4426,105.02951 85.3461,159.83368 -6.0251,8.49047 -8.55,22.65904 -11.619,32.70657 -6.4048,21.06195 -20.559,69.01585 -36.8276,82.28221 l 0.6466,13.77032 c -10.2025,2.4911 -31.675,37.44859 -40.071,47.55771 -15.1601,18.26498 -80.1832,89.54714 -98.0325,93.05644 6.0661,-28.07644 11.2597,-51.9682 14.2363,-80.44699 l -0.8416,-2.51368 c -4.3418,0.93917 -36.1913,26.11907 -42.8937,30.2473 -8.4885,5.22751 -12.8815,8.30161 -23.238,12.30461 l -2.5557,3.88599 c -10.0794,1.21629 -45.4598,19.20619 -57.5201,23.89073 -11.9577,4.64451 -20.6924,7.41787 -33.3583,11.1304 25.7834,-178.9475 -1.2625,-397.87985 -102.5487,-552.43573 -25.7937,-39.35463 -76.7858,-85.62728 -122.7895,-99.361677 z"
     fill="#f98834"
     id="path123"
     style="fill:#98b605;fill-opacity:1;stroke-width:1.02641" />
  <path
     d="m 1136.9742,101.63595 c 18.1161,2.36999 43.7251,9.93155 61.5846,15.43209 115.7278,35.63081 221.6739,101.1661 296.4376,197.44239 34.8262,44.85209 70.4426,105.02951 85.3461,159.83368 -6.0251,8.49047 -8.55,22.65904 -11.619,32.70657 -6.4048,21.06195 -20.559,69.01585 -36.8276,82.28221 l 0.6466,13.77032 c -10.2025,2.4911 -31.675,37.44859 -40.071,47.55771 -15.1601,18.26498 -80.1832,89.54714 -98.0325,93.05644 6.0661,-28.07644 11.2597,-51.9682 14.2363,-80.44699 1.1804,-5.07765 2.176,-22.67648 2.4223,-28.96222 1.8886,-48.77709 0.154,-99.14511 -7.7494,-147.34124 -3.0689,-18.6817 -8.6937,-37.01853 -12.2861,-55.61093 l 0.5543,-0.12932 0.7082,-1.67408 C 1383.2716,361.5498 1359.7361,305.89474 1321.297,249.75419 1271.865,177.56262 1217.6398,141.13737 1138.0314,108.672 l 4.8036,-2.45415 c -3.1306,-1.3138 -3.5925,-2.13185 -5.8608,-4.5819 z"
     fill="#b4bd9e"
     id="path124"
     style="fill:#fefefe;fill-opacity:1;stroke-width:1.02641" />
  <path
     d="m 1136.9742,101.63595 c 18.1161,2.36999 43.7251,9.93155 61.5846,15.43209 115.7278,35.63081 221.6739,101.1661 296.4376,197.44239 34.8262,44.85209 70.4426,105.02951 85.3461,159.83368 -6.0251,8.49047 -8.55,22.65904 -11.619,32.70657 -6.4048,21.06195 -20.559,69.01585 -36.8276,82.28221 -2.4326,-13.4819 -2.8432,-28.91399 -5.2347,-43.00866 -8.3344,-49.21536 -18.9065,-90.98308 -39.1781,-136.46026 -49.9349,-115.01341 -138.473,-208.96693 -250.3313,-265.62582 -21.8522,-10.91485 -44.8028,-20.09814 -67.5378,-29.06589 -8.396,-3.31531 -18.1161,-5.63602 -26.779,-8.95441 -3.1306,-1.3138 -3.5925,-2.13185 -5.8608,-4.5819 z"
     fill="#f34d2a"
     id="path125"
     style="fill:#98b605;fill-opacity:1;stroke-width:1.02641" />
  <path
     d="m 1042.4725,91.715696 c 14.2466,0.173464 24.7571,1.489322 38.8907,2.97967 7.2362,-0.825234 49.8836,4.161069 55.611,6.940584 2.2683,2.45005 2.7302,3.2681 5.8608,4.5819 l -4.8036,2.45415 c 79.6084,32.46537 133.8336,68.89062 183.2656,141.08219 38.4391,56.14055 61.9746,111.79561 71.0276,179.79839 l -0.7082,1.67408 -0.5543,0.12932 c -2.4223,-9.67186 -5.4092,-19.1949 -8.94,-28.52189 -10.726,-32.08252 -24.5107,-63.06164 -41.1488,-92.51142 -17.1616,-30.34069 -30.4228,-47.37603 -53.086,-73.39862 -72.2798,-83.00787 -142.3939,-116.54892 -245.4148,-145.208354 z"
     fill="#fefefe"
     id="path126"
     style="stroke-width:1.02641" />
  <path
     d="m 1081.3632,94.695366 c 7.2362,-0.825234 49.8836,4.161069 55.611,6.940584 2.2683,2.45005 2.7302,3.2681 5.8608,4.5819 l -4.8036,2.45415 c -15.6836,-6.30319 -39.5887,-10.61206 -56.6682,-13.976634 z"
     fill="#ed732b"
     id="path127"
     style="stroke-width:1.02641" />
  <path
     d="m 1382.1221,402.83409 c 3.5308,9.32699 6.5177,18.85003 8.94,28.52189 3.5924,18.5924 9.2172,36.92923 12.2861,55.61093 7.9034,48.19613 9.638,98.56415 7.7494,147.34124 -0.2463,6.28574 -1.2419,23.88457 -2.4223,28.96222 l -0.8416,-2.51368 c -4.3418,0.93917 -36.1913,26.11907 -42.8937,30.2473 -8.4885,5.22751 -12.8815,8.30161 -23.238,12.30461 26.3377,-62.27849 38.747,-99.11945 43.8483,-167.94643 1.3138,-19.57571 1.632,-39.20478 0.9751,-58.8123 -0.5235,-14.17371 -2.2068,-28.29609 -3.4282,-42.39076 -0.6159,-7.04939 -4.4136,-25.85426 -0.9751,-31.32502 z"
     fill="#ed732b"
     id="path128"
     style="fill:#98b605;fill-opacity:1;stroke-width:1.02641" />
  <path
     d="m 970.23483,90.862749 c 6.85848,-0.884766 11.51531,-1.864988 18.38199,-0.579922 -74.47224,23.381633 -125.25493,92.568893 -159.61299,158.768263 -73.10609,140.86049 -94.69972,339.36932 -69.34225,495.04398 -41.01536,-12.66898 -82.8067,-29.53085 -121.03844,-49.01315 -5.18645,-2.64301 -39.17809,-22.774 -40.81829,-22.80171 l -1.03976,2.27042 c -0.33461,-2.33509 -0.67024,-4.3058 -1.12802,-6.61933 -0.35514,0.52347 -0.96996,0.81292 -1.47701,1.18961 -23.63105,-12.81165 -115.05857,-71.1672 -114.01574,-96.40971 l -1.03051,6.1677 c -14.7875,-14.11315 -35.81557,-54.70358 -43.68814,-74.83663 -3.12542,-7.99163 -4.99452,-15.98326 -7.69911,-22.75552 l -0.64972,-1.5858 c 1.92658,-8.69267 12.39494,-34.08094 16.04896,-42.57038 33.81612,-78.37774 85.58006,-147.70972 151.11637,-202.40406 75.68855,-63.20123 160.39308,-105.28612 256.25675,-127.21333 12.58994,-2.87908 45.27701,-10.999014 57.2932,-9.914098 23.61976,-3.669418 38.45242,-6.924166 62.44271,-6.736333 z"
     fill="#f98834"
     id="path129"
     style="fill:#98b605;fill-opacity:1;stroke-width:1.02641" />
  <path
     d="m 907.79212,97.599082 c 23.61976,-3.669418 38.45242,-6.924166 62.44271,-6.736333 -124.61752,27.835231 -219.68264,86.325231 -289.5966,194.811701 -69.61937,108.02869 -95.84314,255.3494 -85.00116,382.25685 -0.35514,0.52347 -0.96996,0.81292 -1.47701,1.18961 -23.63105,-12.81165 -115.05857,-71.1672 -114.01574,-96.40971 l -1.03051,6.1677 c -14.7875,-14.11315 -35.81557,-54.70358 -43.68814,-74.83663 -3.12542,-7.99163 -4.99452,-15.98326 -7.69911,-22.75552 l -0.64972,-1.5858 c 1.92658,-8.69267 12.39494,-34.08094 16.04896,-42.57038 33.81612,-78.37774 85.58006,-147.70972 151.11637,-202.40406 75.68855,-63.20123 160.39308,-105.28612 256.25675,-127.21333 12.58994,-2.87908 45.27701,-10.999014 57.2932,-9.914098 z"
     fill="#fefefe"
     id="path130"
     style="stroke-width:1.02641" />
  <path
     d="m 427.07684,479.70095 c 1.92658,-8.69267 12.39494,-34.08094 16.04896,-42.57038 33.81612,-78.37774 85.58006,-147.70972 151.11637,-202.40406 75.68855,-63.20123 160.39308,-105.28612 256.25675,-127.21333 12.58994,-2.87908 45.27701,-10.999014 57.2932,-9.914098 -28.16573,7.602618 -52.09649,12.460628 -79.67614,23.295418 -190.14871,74.70011 -332.8824,243.59391 -347.97166,451.8167 l -1.03051,6.1677 c -14.7875,-14.11315 -35.81557,-54.70358 -43.68814,-74.83663 -3.12542,-7.99163 -4.99452,-15.98326 -7.69911,-22.75552 z"
     fill="#f98834"
     id="path131"
     style="fill:#98b605;fill-opacity:1;stroke-width:1.02641" />
  <path
     d="m 1004.2387,89.997485 c 7.4928,-0.28021 11.2495,-0.256603 18.691,0.420828 46.0037,13.734397 96.9958,60.007047 122.7895,99.361677 101.2862,154.55588 128.3321,373.48823 102.5487,552.43573 l -0.3901,0.7462 c -4.3314,30.31093 -10.3154,63.49581 -19.471,92.74543 l -0.5645,0.70104 c -10.3668,3.70637 -20.8772,8.72757 -31.2542,12.31898 -30.8642,10.68596 -83.5088,26.37875 -116.241,27.0336 3.5001,-29.17983 6.8462,-62.59462 7.7905,-91.9592 l 0.739,-7.14382 c -0.041,-12.62074 1.8988,-27.14343 2.371,-39.41827 5.481,-141.31826 22.3039,-551.95024 -87.0089,-647.242195 z"
     fill="#fefefe"
     id="path132"
     style="stroke-width:1.02641" />
  <path
     d="m 1088.8766,776.65795 c 14.185,-2.62145 31.48,-3.34302 46.5785,-5.92034 37.2074,-6.35348 76.8371,-15.39205 112.4227,-27.77569 -4.3314,30.31093 -10.3154,63.49581 -19.471,92.74543 l -0.5645,0.70104 c -10.3668,3.70637 -20.8772,8.72757 -31.2542,12.31898 -30.8642,10.68596 -83.5088,26.37875 -116.241,27.0336 3.5001,-29.17983 6.8462,-62.59462 7.7905,-91.9592 z"
     fill="#ece4c8"
     id="path133"
     style="fill:#fefefe;fill-opacity:1;stroke-width:1.02641" />
  <path
     d="m 988.61682,90.282827 c 4.8344,-0.461885 8.37551,-0.421855 13.18938,-0.403379 C 895.82212,194.26848 906.29561,626.82869 915.56615,775.35954 877.45348,774.7088 830.14622,762.1209 792.67813,754.28528 781.91519,752.03436 770.82688,746.3696 759.66158,744.09507 734.30411,588.42041 755.89774,389.91158 829.00383,249.05109 863.36189,182.85172 914.14458,113.66446 988.61682,90.282827 Z"
     fill="#fefefe"
     id="path134"
     style="stroke-width:1.02641" />
  <path
     d="m 479.11381,578.8789 1.03051,-6.1677 c -1.04283,25.24251 90.38469,83.59806 114.01574,96.40971 0.50705,-0.37669 1.12187,-0.66614 1.47701,-1.18961 0.45778,2.31353 0.79341,4.28424 1.12802,6.61933 2.99199,22.07706 10.60796,59.77712 17.31247,81.17676 7.7145,30.67222 32.52798,80.96018 47.68088,108.55626 30.02969,54.64302 63.03392,107.59657 98.86489,158.62045 12.84963,18.4138 28.1996,36.0989 40.56067,53.4863 41.67124,58.6388 102.36905,144.5288 119.29661,214.2837 l -28.63172,0.1232 C 862.87742,1216.013 797.01882,1148.352 741.66758,1090.8525 l -76.10219,-79.5263 C 572.60544,913.47745 504.43433,800.48505 483.19276,665.97086 478.5657,636.66376 478.3481,608.44979 479.11381,578.8789 Z"
     fill="#ece4c8"
     id="path135"
     style="fill:#fefefe;fill-opacity:1;stroke-width:1.02641" />
  <path
     d="m 759.66158,744.09507 c 11.1653,2.27453 22.25361,7.93929 33.01655,10.19021 37.46809,7.83562 84.77535,20.42352 122.88802,21.07426 l 0.43828,5.48719 c 3.96195,63.37059 13.69642,117.40084 24.0642,179.30264 l 26.11496,163.20953 c 8.13328,51.4437 18.32759,116.4155 21.77633,168.1466 -8.95543,-1.1906 -26.71028,-0.7185 -36.30312,-0.7185 -6.27239,-26.4711 -13.73337,-58.6286 -22.52252,-84.2991 -25.18915,-73.5936 -59.34706,-145.35 -89.64669,-216.69579 -19.20415,-46.05607 -37.17044,-92.61406 -53.87937,-139.62777 -1.46367,-7.72066 -9.46043,-31.1649 -12.06649,-40.08236 -6.26931,-21.61723 -10.90971,-43.67479 -13.88015,-65.98691 z"
     fill="#ece4c8"
     id="path136"
     style="fill:#fefefe;fill-opacity:1;stroke-width:1.02641" />
  <path
     d="m 1010.7051,1331.9665 c 5.2963,0.082 15.078,-0.021 19.974,0.5645 -6.5075,0.092 -13.0252,0.154 -19.5326,0.1643 l 53.0552,125.1605 c 8.8579,21.1338 19.2144,44.6899 26.9535,66.1624 -3.1921,0.2155 -5.9327,0.041 -9.1248,-0.062 -4.2904,-13.251 -69.4059,-170.4252 -73.2652,-172.6115 -2.1452,-5.286 -1.7551,-14.5955 1.9399,-19.3786 z"
     fill="#305962"
     id="path140"
     style="stroke-width:1.02641;fill:#799204;fill-opacity:1" />
  <path
     d="m 1106.2332,1332.2231 7.3491,0.2977 c -0.8314,64.3559 -0.1745,127.0696 0.062,191.4255 l -7.1541,0.1437 c 0.01,-64.3456 -0.8827,-127.1928 -0.2566,-191.8669 z"
     fill="#305962"
     id="path141"
     style="stroke-width:1.02641;fill:#799204;fill-opacity:1" />
  <path
     d="m 893.90479,1332.6439 7.23516,-0.2771 c 0.66204,63.5861 -1.32201,128.1987 -0.43725,191.0561 l -7.04836,-0.1027 c 0.83961,-21.7701 0.31408,-46.5477 0.33564,-68.4924 z"
     fill="#305962"
     id="path144"
     style="stroke-width:1.02641;fill:#799204;fill-opacity:1" />
  <path
     d="m 650.96265,1067.9327 c 6.38017,4.4752 10.30516,7.6365 16.23063,12.7173 41.44338,105.6484 86.45354,209.8599 134.95041,312.4598 13.72003,28.606 29.21575,57.6329 43.41717,86.085 7.3142,14.6469 16.62784,29.6222 23.92664,44.2486 -4.30066,0.2669 -9.17097,0 -13.52501,-0.1232 -0.0606,-1.5293 -48.94746,-95.5896 -53.70795,-105.4534 -42.9912,-87.3681 -82.45156,-176.4193 -118.28663,-266.959 -10.91177,-27.1383 -23.04702,-55.5494 -33.00526,-82.9751 z"
     fill="#305962"
     id="path146"
     style="stroke-width:1.02641;fill:#799204;fill-opacity:1" />
  <path
     d="m 1007.9851,883.17166 c 22.0781,-0.0975 50.2736,-3.56678 72.0746,-6.53413 l -37.0534,249.31817 c -5.8711,37.5051 -11.0442,75.123 -15.5194,112.8231 -1.8783,15.663 -4.6701,35.2059 -5.4707,50.7868 l 0.3182,1.5293 -14.6469,-0.062 z"
     fill="#bf2d27"
     id="path147"
     style="fill:#98b605;fill-opacity:1;stroke-width:1.02641" />
  <path
     d="m 596.76509,674.55063 1.03976,-2.27042 c 1.6402,0.0277 35.63184,20.1587 40.81829,22.80171 38.23174,19.4823 80.02308,36.34417 121.03844,49.01315 2.97044,22.31212 7.61084,44.36968 13.88015,65.98691 2.60606,8.91746 10.60282,32.3617 12.06649,40.08236 -35.67804,-6.04453 -115.14993,-52.57275 -145.73902,-74.24848 -9.09194,-6.44278 -17.22111,-13.54349 -25.79164,-20.18847 -6.70451,-21.39964 -14.32048,-59.0997 -17.31247,-81.17676 z"
     fill="#ed732b"
     id="path148"
     style="fill:#98b605;fill-opacity:1;stroke-width:1.02641" />
  <path
     d="m 870.72536,1304.0173 c 15.05231,0.4003 30.22676,1.7552 45.30473,1.8578 54.33407,0.2669 108.72661,0.4517 163.06481,0.3285 16.4431,-0.041 43.9201,1.6115 58.6593,-3.541 -3.4487,13.2508 -7.4928,30.5459 -24.1719,29.8582 l -7.3491,-0.2977 c -22.5297,-0.8827 -52.3572,0.2258 -75.5541,0.3079 -4.896,-0.585 -14.6777,-0.4824 -19.974,-0.5645 -5.83,-0.3592 -11.42387,-0.154 -17.24362,-0.021 -28.97968,-0.041 -63.97617,1.1701 -92.32153,0.4208 l -7.23516,0.2771 c -18.10999,-0.6979 -19.45562,-13.3741 -23.17943,-28.6266 z"
     fill="#bf2d27"
     id="path149"
     style="stroke-width:1.02641" />
  <path
     d="m 757.48457,1522.5196 98.47792,0.8006 c 4.35404,0.1232 9.22435,0.3901 13.52501,0.1232 7.78225,-0.072 16.4585,-0.349 24.16684,-0.1232 l 7.04836,0.1027 16.28503,-0.082 8.6742,0.041 c 24.59998,-0.2669 49.20202,-0.2053 73.80405,0.2053 l 9.72002,0.1026 c 20.8362,0.01 52.8705,-0.9545 72.8444,0.2669 3.1921,0.1026 5.9327,0.2771 9.1248,0.062 4.8857,-0.01 10.5104,-0.1642 15.3346,0.072 l 7.1541,-0.1437 c 8.7347,-0.041 18.0237,-0.2463 26.7072,-0.072 3.0381,-0.01 7.1848,0.1026 10.1101,-0.1027 33.5123,0.021 68.5437,0.5543 101.9328,-0.2566 0.031,11.1366 0.2566,22.8069 -0.041,33.9024 l -0.2053,23.7306 c -10.5104,0.031 -24.2643,-0.3285 -34.5182,0.4311 -9.6996,85.89 -25.9784,136.4715 -70.2065,212.118 l -0.6261,-0.154 c -16.5457,-0.01 -44.6078,0.8417 -60.3837,-0.7492 l -13.056,-0.072 c -9.8227,-0.051 -19.6352,-0.1847 -29.4477,-0.39 -3.5411,-0.3695 -6.3945,-0.1437 -9.9151,0.01 -10.9929,0.7391 -26.9535,0.3285 -38.34667,0.3388 l -8.49868,-0.031 -26.27919,0.4413 c -6.3001,-0.031 -16.72843,0.6672 -22.12325,0.2771 -7.19616,0.021 -14.39233,-0.01 -21.58849,-0.082 l -9.97363,-0.39 c -15.64455,-0.01 -31.285,-0.4208 -46.90799,-1.2317 -6.35348,-8.1702 -13.97149,-23.0326 -19.13229,-32.2703 -23.29336,-41.7134 -38.49553,-82.5953 -47.70653,-129.5125 -3.35329,-17.0795 -6.81229,-30.5357 -7.56362,-48.5287 -9.16277,-0.2361 -18.88596,-0.1129 -28.09799,-0.1437 l -0.25147,-23.9359 z"
     fill="#fdce54"
     id="path150"
     style="stroke-width:1.02641" />
  <path
     d="m 838.50223,1581.2098 16.57756,0.051 58.34732,-0.01 8.95031,0.01 60.65573,0.031 c 0.67743,70.4631 2.05282,140.9159 4.1159,211.3585 l -26.27919,0.4413 c -6.3001,-0.031 -16.72843,0.6672 -22.12325,0.2771 -7.19616,0.021 -14.39233,-0.01 -21.58849,-0.082 l -9.97363,-0.39 c -15.64455,-0.01 -31.285,-0.4208 -46.90799,-1.2317 -6.35348,-8.1702 -13.97149,-23.0326 -19.13229,-32.2703 -23.29336,-41.7134 -38.49553,-82.5953 -47.70653,-129.5125 -3.35329,-17.0795 -6.81229,-30.5357 -7.56362,-48.5287 16.9214,0 35.87099,0.4208 52.62817,-0.1437 z"
     fill="#fdce54"
     id="path151"
     style="stroke-width:1.02641" />
  <path
     d="m 838.50223,1581.2098 16.57756,0.051 c 8.95953,89.9957 24.66874,130.1797 62.07833,212.0256 l -9.97363,-0.39 c -15.64455,-0.01 -31.285,-0.4208 -46.90799,-1.2317 -6.35348,-8.1702 -13.97149,-23.0326 -19.13229,-32.2703 -23.29336,-41.7134 -38.49553,-82.5953 -47.70653,-129.5125 -3.35329,-17.0795 -6.81229,-30.5357 -7.56362,-48.5287 16.9214,0 35.87099,0.4208 52.62817,-0.1437 z"
     fill="#fdce54"
     id="path152"
     style="stroke-width:1.02641" />
  <path
     d="m 838.50223,1581.2098 16.57756,0.051 c 8.95953,89.9957 24.66874,130.1797 62.07833,212.0256 l -9.97363,-0.39 c -30.95655,-57.3045 -54.215,-127.3776 -60.34575,-192.2878 -0.51629,-5.4605 0.51423,-13.0046 -2.45825,-17.7774 -0.79547,-1.2727 -4.24216,-1.3651 -5.87826,-1.6217 z"
     fill="#d58b0e"
     id="path153"
     style="stroke-width:1.02641" />
  <path
     d="m 922.37742,1581.2611 60.65573,0.031 c 0.67743,70.4631 2.05282,140.9159 4.1159,211.3585 l -26.27919,0.4413 c -2.16162,-6.9898 -4.36224,-14.2876 -6.04145,-21.4109 -14.68588,-62.3237 -27.72951,-126.4333 -32.45099,-190.4197 z"
     fill="#fdce54"
     id="path154"
     style="stroke-width:1.02641" />
  <path
     d="m 913.42711,1581.2508 8.95031,0.01 c 4.72148,63.9864 17.76511,128.096 32.45099,190.4197 1.67921,7.1233 3.87983,14.4211 6.04145,21.4109 -6.3001,-0.031 -16.72843,0.6672 -22.12325,0.2771 3.63144,-0.1744 7.66113,0.051 10.65825,-1.7449 -0.82729,-7.0309 -5.36505,-20.8977 -7.42813,-28.257 -2.91501,-10.3976 -4.85698,-19.3171 -7.07608,-29.8788 -10.96617,-50.1299 -18.14386,-101.0194 -21.47354,-152.2373 z"
     fill="#d58b0e"
     id="path155"
     style="stroke-width:1.02641" />
  <path
     d="m 757.48457,1522.5196 98.47792,0.8006 c 4.35404,0.1232 9.22435,0.3901 13.52501,0.1232 7.78225,-0.072 16.4585,-0.349 24.16684,-0.1232 l 7.04836,0.1027 16.28503,-0.082 8.6742,0.041 c 24.59998,-0.2669 49.20202,-0.2053 73.80405,0.2053 l 9.72002,0.1026 c 20.8362,0.01 52.8705,-0.9545 72.8444,0.2669 3.1921,0.1026 5.9327,0.2771 9.1248,0.062 4.8857,-0.01 10.5104,-0.1642 15.3346,0.072 l 7.1541,-0.1437 c 8.7347,-0.041 18.0237,-0.2463 26.7072,-0.072 3.0381,-0.01 7.1848,0.1026 10.1101,-0.1027 33.5123,0.021 68.5437,0.5543 101.9328,-0.2566 0.031,11.1366 0.2566,22.8069 -0.041,33.9024 l -0.2053,23.7306 c -10.5104,0.031 -24.2643,-0.3285 -34.5182,0.4311 -9.9254,1.1906 -34.8364,0.3284 -45.3879,0.195 -19.7173,-0.6466 -40.4816,-0.3284 -60.3119,-0.4003 l -128.89655,-0.082 -60.65573,-0.031 -8.95031,-0.01 -58.34732,0.01 -16.57756,-0.051 c -16.75718,0.5645 -35.70677,0.1437 -52.62817,0.1437 -9.16277,-0.2361 -18.88596,-0.1129 -28.09799,-0.1437 l -0.25147,-23.9359 z"
     fill="#9f661e"
     id="path156"
     style="stroke-width:1.02641" />
  <path
     d="m 757.5246,1557.2739 494.8284,0.1437 -0.2053,23.7306 c -10.5104,0.031 -24.2643,-0.3285 -34.5182,0.4311 -9.9254,1.1906 -34.8364,0.3284 -45.3879,0.195 -19.7173,-0.6466 -40.4816,-0.3284 -60.3119,-0.4003 l -128.89655,-0.082 -60.65573,-0.031 -8.95031,-0.01 -58.34732,0.01 -16.57756,-0.051 c -16.75718,0.5645 -35.70677,0.1437 -52.62817,0.1437 -9.16277,-0.2361 -18.88596,-0.1129 -28.09799,-0.1437 z"
     fill="#653f10"
     id="path157"
     style="stroke-width:1.02641" />
  <path
     d="m 1111.9297,1581.374 c 19.8303,0.072 40.5946,-0.2463 60.3119,0.4003 10.5515,0.1334 35.4625,0.9956 45.3879,-0.195 -9.6996,85.89 -25.9784,136.4715 -70.2065,212.118 l -0.6261,-0.154 c -16.5457,-0.01 -44.6078,0.8417 -60.3837,-0.7492 l -13.056,-0.072 c 20.8978,-57.7253 36.6224,-149.004 39.4245,-210.4347 l -1.0983,-0.195 z"
     fill="#d58b0e"
     id="path158"
     style="stroke-width:1.02641" />
  <path
     d="m 1172.2416,1581.7743 c 10.5515,0.1334 35.4625,0.9956 45.3879,-0.195 -9.6996,85.89 -25.9784,136.4715 -70.2065,212.118 l -0.6261,-0.154 c -5.3476,-1.5396 -26.5738,-0.9751 -33.7381,-0.9135 23.823,-47.8615 41.2514,-95.5588 51.1152,-148.3368 3.8183,-20.4256 5.1937,-41.8878 8.0676,-62.5187 z"
     fill="#d58b0e"
     id="path159"
     style="stroke-width:1.02641" />
  <path
     d="m 1111.9297,1581.374 c 19.8303,0.072 40.5946,-0.2463 60.3119,0.4003 -2.8739,20.6309 -4.2493,42.0931 -8.0676,62.5187 -9.8638,52.778 -27.2922,100.4753 -51.1152,148.3368 7.1643,-0.062 28.3905,-0.6261 33.7381,0.9135 -16.5457,-0.01 -44.6078,0.8417 -60.3837,-0.7492 4.8138,-0.2669 11.9269,-0.01 16.9255,0.041 33.307,-65.485 52.7678,-137.1387 57.1608,-210.4757 l -47.7178,-0.072 -1.0983,-0.195 z"
     fill="#9f661e"
     id="path160"
     style="stroke-width:1.02641" />
  <path
     d="m 1111.6834,1582.0925 1.0983,0.195 c -2.8021,61.4307 -18.5267,152.7094 -39.4245,210.4347 -9.8227,-0.051 -19.6352,-0.1847 -29.4477,-0.39 0.9546,-9.0324 2.7303,-19.625 4.352,-28.5753 11.0031,-60.6711 15.2217,-120.1414 17.8595,-181.6028 z"
     fill="#fdce54"
     id="path161"
     style="stroke-width:1.02641" />
  <path
     d="m 983.03315,1581.2919 128.89655,0.082 -0.2463,0.7185 -45.5624,0.062 c -2.6378,61.4614 -6.8564,120.9317 -17.8595,181.6028 -1.6217,8.9503 -3.3974,19.5429 -4.352,28.5753 -3.5411,-0.3695 -6.3945,-0.1437 -9.9151,0.01 11.9577,-70.2064 20.4974,-138.9144 22.037,-210.2294 l -63.07286,-0.1539 c 2.05282,68.3281 1.95018,141.9628 2.68919,210.7221 l -8.49868,-0.031 c -2.06308,-70.4426 -3.43847,-140.8954 -4.1159,-211.3585 z"
     fill="#d58b0e"
     id="path162"
     style="stroke-width:1.02641" />
  <path
     d="m 860.2765,1791.665 c 15.62299,0.8109 31.26344,1.2214 46.90799,1.2317 l 9.97363,0.39 c 7.19616,0.072 14.39233,0.1027 21.58849,0.082 5.39482,0.3901 15.82315,-0.3079 22.12325,-0.2771 l 26.27919,-0.4413 8.49868,0.031 c 11.39317,-0.01 27.35377,0.4003 38.34667,-0.3388 3.5206,-0.1539 6.374,-0.3797 9.9151,-0.01 9.8125,0.2053 19.625,0.3387 29.4477,0.39 l 13.056,0.072 c 15.7759,1.5909 43.838,0.739 60.3837,0.7492 l 0.6261,0.154 c -11.6292,19.0194 -31.1413,44.7412 -45.2852,62.2107 -5.0705,5.6761 -35.5343,40.4919 -36.9097,45.0697 -6.9694,1.4473 -50.9305,0.8109 -60.5069,0.7801 l -2.72,0.39 c -11.96793,-0.02 -52.26276,0.4209 -61.54869,-1.324 -3.29273,-6.1174 -28.92836,-36.3555 -34.34268,-42.945 -15.39102,-21.5444 -31.81051,-43.8688 -45.83333,-66.2138 z"
     fill="#f34d2a"
     id="path163"
     style="stroke-width:1.02641" />
  <path
     d="m 1073.3572,1792.7222 13.056,0.072 c 15.7759,1.5909 43.838,0.739 60.3837,0.7492 l 0.6261,0.154 c -11.6292,19.0194 -31.1413,44.7412 -45.2852,62.2107 -5.0705,5.6761 -35.5343,40.4919 -36.9097,45.0697 -6.9694,1.4473 -50.9305,0.8109 -60.5069,0.7801 37.1766,-32.8965 53.3117,-62.4879 68.636,-109.0356 z"
     fill="#bf2d27"
     id="path164"
     style="fill:#f34d2a;fill-opacity:1;stroke-width:1.02641" />
  <path
     d="m 1065.2281,1900.9777 c 4.003,4.6599 2.915,30.0123 -0.8417,35.5036 -6.8564,3.6643 -52.4188,1.6936 -62.5597,1.8065 -0.1334,-12.0501 -0.072,-24.1002 0.1745,-36.14 l 2.72,-0.39 c 9.5764,0.031 53.5375,0.6672 60.5069,-0.7801 z"
     fill="#018091"
     id="path165"
     style="stroke-width:1.02641" />
  <path
     d="m 940.45251,1900.8238 c 9.28593,1.7449 49.58076,1.3035 61.54869,1.324 -0.2464,12.0398 -0.3079,24.0899 -0.1745,36.14 -14.88293,0.082 -48.75037,1.0572 -61.561,-1.6115 -0.4701,-10.1512 -0.65793,-25.8553 0.18681,-35.8525 z"
     fill="#0a98a2"
     id="path166"
     style="stroke-width:1.02641" />
  <path
     d="m 1348.0311,909.49173 c 79.5774,-8.86082 124.1274,24.51701 164.9667,88.31315 26.1533,0.93876 42.5829,15.15542 55.4361,36.94982 -0.1118,22.9121 2.4588,19.8273 23.0462,14.0602 27.7626,-7.7566 51.01,0.693 59.5042,30.3333 28.4109,0 82.1705,10.7296 111.5426,16.0496 -38.6487,3.2636 -91.0671,2.0565 -131.1017,2.5036 l -255.8103,1.6318 c -77.7669,0.4024 -155.5561,0.4024 -233.3229,-0.023 -66.5902,-0.2235 -126.5416,0.2459 -192.81895,-4.0906 42.2029,-6.9519 84.07045,-12.0708 125.49105,-22.9345 16.6084,-4.3364 33.731,-5.6776 50.8312,-6.7953 2.4141,-16.6085 7.1083,-33.731 19.0002,-46.2712 24.5215,-25.88506 49.5572,-14.4178 73.8775,-16.139 9.5671,-8.65078 15.2672,-24.94627 24.1861,-36.45813 25.9968,-33.48513 64.7574,-50.35958 105.172,-57.13037 z"
     fill="#fefefe"
     id="path167"
     style="stroke-width:2.23533" />
</svg>
