<?xml version="1.0" encoding="UTF-8" standalone="no"?>
<svg
   width="512"
   height="512"
   viewBox="0 0 512 512"
   fill="none"
   version="1.1"
   id="svg22"
   sodipodi:docname="kofi_logo.svg"
   inkscape:version="1.4 (e7c3feb100, 2024-10-09)"
   xmlns:inkscape="http://www.inkscape.org/namespaces/inkscape"
   xmlns:sodipodi="http://sodipodi.sourceforge.net/DTD/sodipodi-0.dtd"
   xmlns="http://www.w3.org/2000/svg"
   xmlns:svg="http://www.w3.org/2000/svg">
  <sodipodi:namedview
     id="namedview22"
     pagecolor="#ffffff"
     bordercolor="#000000"
     borderopacity="0.25"
     inkscape:showpageshadow="2"
     inkscape:pageopacity="0.0"
     inkscape:pagecheckerboard="0"
     inkscape:deskcolor="#d1d1d1"
     inkscape:zoom="0.58"
     inkscape:cx="369.82759"
     inkscape:cy="100.86207"
     inkscape:window-width="1366"
     inkscape:window-height="714"
     inkscape:window-x="0"
     inkscape:window-y="0"
     inkscape:window-maximized="1"
     inkscape:current-layer="svg22" />
  <defs
     id="defs22">
    <clipPath
       id="clip0_1_194">
      <rect
         width="737.18402"
         height="200.806"
         fill="#ffffff"
         transform="translate(-0.00585938,0.299805)"
         id="rect22"
         x="0"
         y="0" />
    </clipPath>
  </defs>
  <path
     d="m 204.06271,458.10758 c -71.18286,0 -129.082359,-31.83372 -163.018213,-89.64303 C 10.999641,317.79101 8.5517246,262.90669 8.5517246,201.57986 c 0,-36.35792 10.9382874,-68.01309 31.6168984,-91.55179 19.003339,-21.618978 45.930371,-35.623661 75.833387,-39.437206 35.49484,-4.496411 79.62208,-4.870059 125.50106,-4.870059 74.66055,0 95.75099,0.914732 125.1269,3.852221 39.07714,3.878037 71.95695,18.462519 95.06849,42.181404 23.47513,24.09262 35.88199,56.26333 35.88199,93.07218 v 7.39577 c 0,62.80883 -41.98793,115.37346 -100.50614,129.66126 -4.36718,10.30858 -9.77843,20.56232 -16.18092,30.66371 l -0.16859,0.25797 c -20.6131,31.86215 -69.07055,85.31647 -161.88436,85.31647 h -14.79033 z"
     fill="#ffffff"
     id="path14"
     style="stroke-width:2.03125" />
  <path
     d="m 363.56482,100.32906 c -27.73872,-2.77001 -47.15543,-3.69768 -122.04956,-3.69768 -48.08126,0 -88.76777,0.463733 -121.58278,4.62515 -43.45713,5.55303 -80.446356,38.83177 -80.446356,100.32597 0,61.49481 3.233747,109.11133 28.202454,151.17846 28.20286,48.08168 75.357062,74.42899 136.387942,74.42899 h 14.79033 c 74.8921,0 115.58003,-39.75965 135.92297,-71.19523 8.78718,-13.87546 15.25467,-27.73872 19.41671,-41.61418 53.16994,-4.62515 92.46646,-48.54683 92.46646,-102.16893 v -7.39496 c 0,-57.78412 -37.90309,-98.00709 -103.09599,-104.48759 z"
     fill="#ffffff"
     id="path15"
     style="stroke-width:2.03125" />
  <path
     d="m 39.475155,201.5825 c 0,-61.4942 36.989226,-94.77294 80.445945,-100.32597 32.82821,-4.161417 73.51533,-4.62515 121.584,-4.62515 74.89414,0 94.3088,0.92767 122.04752,3.69768 65.19291,6.4677 103.09599,46.69108 103.09599,104.48759 v 7.39496 c 0,53.6343 -39.29449,97.55597 -92.46646,102.16893 -4.16203,13.87546 -10.62953,27.73872 -19.41467,41.61418 -20.34497,31.43558 -61.03087,71.19523 -135.92501,71.19523 h -14.78992 c -61.03027,0 -108.185075,-26.34731 -136.387738,-74.42899 C 42.696104,310.69383 39.462359,263.99137 39.462359,201.5825"
     fill="#202020"
     id="path18"
     style="stroke-width:2.03125" />
  <path
     d="m 74.142462,202.04217 c 0,59.63967 3.697683,98.00588 23.11337,133.60553 22.185688,41.14902 62.409078,56.86885 108.185078,56.86885 h 14.32578 c 60.10462,0 89.23272,-29.13013 105.41567,-54.55119 7.85889,-12.94717 14.79154,-27.27357 18.48842,-45.31104 l 2.77061,-11.5578 h 16.64608 c 36.98902,0 68.88774,-30.04399 68.88774,-68.42504 v -6.93183 c 0,-42.99257 -26.81044,-65.65562 -73.51289,-71.19544 -26.34731,-2.30607 -42.06715,-3.23374 -116.97143,-3.23374 -50.38917,0 -86.45094,0.46373 -113.72612,4.62535 -38.367836,5.55282 -53.635105,27.27458 -53.635105,66.10635"
     fill="#ffffff"
     id="path19"
     style="stroke-width:2.03125" />
  <path
     d="m 346.45764,233.93845 c 0,5.55283 4.16204,9.71445 11.55577,9.71445 23.57873,0 36.52591,-13.41193 36.52591,-35.59763 0,-22.18569 -12.94718,-36.06176 -36.52591,-36.06176 -7.39373,0 -11.55577,4.16163 -11.55577,9.71445 v 52.2437 z"
     fill="#202020"
     id="path20"
     style="stroke-width:2.03125" />
  <path
     d="m 119.45595,231.15666 c 0,27.27458 15.25467,50.85188 34.67035,69.35249 12.94778,12.48608 33.29134,25.43325 47.154,33.75528 4.16162,2.30749 8.32324,3.6989 12.94921,3.6989 5.5514,0 10.16436,-1.39141 13.87545,-3.6989 13.87546,-8.32203 34.20621,-21.2692 46.69026,-33.75528 19.87982,-18.48842 35.1345,-42.06471 35.1345,-69.35249 0,-29.59407 -22.18529,-55.94118 -54.08604,-55.94118 -18.95154,0 -31.90075,9.71425 -41.61417,23.11296 -8.78759,-13.41193 -22.18631,-23.11296 -41.15105,-23.11296 -32.36408,0 -53.63511,26.34711 -53.63511,55.94118"
     fill="#ff5a16"
     id="path21"
     style="stroke-width:2.03125" />
</svg>
