<?xml version="1.0" encoding="UTF-8" standalone="no"?>
<svg
   width="55.148869"
   height="55.148869"
   viewBox="0 0 55.148869 55.148869"
   version="1.1"
   id="svg5"
   sodipodi:docname="matrix.svg"
   inkscape:version="1.4 (e7c3feb100, 2024-10-09)"
   xmlns:inkscape="http://www.inkscape.org/namespaces/inkscape"
   xmlns:sodipodi="http://sodipodi.sourceforge.net/DTD/sodipodi-0.dtd"
   xmlns="http://www.w3.org/2000/svg"
   xmlns:svg="http://www.w3.org/2000/svg">
  <defs
     id="defs5" />
  <sodipodi:namedview
     id="namedview5"
     pagecolor="#ffffff"
     bordercolor="#000000"
     borderopacity="0.25"
     inkscape:showpageshadow="2"
     inkscape:pageopacity="0.0"
     inkscape:pagecheckerboard="0"
     inkscape:deskcolor="#d1d1d1"
     inkscape:zoom="1.7245297"
     inkscape:cx="35.661896"
     inkscape:cy="30.733016"
     inkscape:window-width="1332"
     inkscape:window-height="740"
     inkscape:window-x="0"
     inkscape:window-y="0"
     inkscape:window-maximized="1"
     inkscape:current-layer="matrix-logo-white">
    <inkscape:page
       x="0"
       y="0"
       width="55.148869"
       height="55.148869"
       id="page2"
       margin="0"
       bleed="0" />
  </sodipodi:namedview>
  <!-- Generator: Sketch 55 (78076) - https://sketchapp.com -->
  <title
     id="title1">matrix logo white</title>
  <desc
     id="desc1">Created with Sketch.</desc>
  <rect
     style="fill:none;fill-opacity:0.498408;stroke-width:1.696;stroke-linecap:round"
     id="rect5"
     width="55.148869"
     height="55.148869"
     x="-2.7396203e-07"
     y="-5.1530958e-07"
     ry="0" />
  <g
     id="Page-1"
     stroke="none"
     stroke-width="1"
     fill="none"
     fill-rule="evenodd"
     transform="translate(10.101524,12.012627)">
    <g
       id="matrix-logo-white"
       fill="#ffffff"
       fill-rule="nonzero">
      <polygon
         id="Path"
         points="0.93631479,0.73220178 0.93631479,31.249567 3.1294248,31.249567 3.1294248,31.981769 0.094721871,31.981769 0.094721871,9.495549e-05 3.1294248,9.495549e-05 3.1294248,0.73220178 "
         transform="matrix(1.3243901,0,0,1.3243901,-4.9449824,-5.733329)" />
      <path
         d="m 10.134145,8.0491311 v 2.0453299 h 0.05814 C 10.737026,9.315893 11.393152,8.7113738 12.161792,8.2827893 12.92993,7.8549609 13.810458,7.640166 14.802243,7.640166 c 0.952857,0 1.823464,0.1854928 2.611065,0.5552215 0.787853,0.3703577 1.38609,1.0225391 1.794582,1.9576765 0.447045,-0.6621157 1.054825,-1.2466393 1.823465,-1.7530675 0.768137,-0.5061767 1.677421,-0.7598305 2.727975,-0.7598305 0.797523,0 1.536277,0.097594 2.217642,0.292387 0.680362,0.1947992 1.263906,0.5064282 1.750255,0.9348856 0.485847,0.4288362 0.865081,0.9888361 1.137954,1.6797514 0.27212,0.692173 0.408494,1.52444 0.408494,2.498688 v 10.109191 l -4.143199,-1.25e-4 v -8.560858 c 0,-0.506177 -0.01934,-0.983428 -0.05839,-1.431756 -0.03931,-0.447698 -0.145791,-0.837046 -0.320843,-1.16867 -0.175175,-0.33087 -0.43323,-0.594081 -0.77316,-0.789007 -0.340432,-0.194044 -0.802545,-0.29201 -1.385964,-0.29201 -0.583418,0 -1.0552,0.112679 -1.415096,0.335899 -0.360147,0.224353 -0.641936,0.516742 -0.845994,0.876661 -0.204184,0.360799 -0.340432,0.76964 -0.408368,1.227651 -0.06843,0.457508 -0.102216,0.920298 -0.102216,1.387741 v 8.414474 h -4.142821 v -8.472952 c 0,-0.44795 -0.0102,-0.891247 -0.02889,-1.329263 -0.01984,-0.438519 -0.102216,-0.84258 -0.248385,-1.212937 -0.145918,-0.369729 -0.389155,-0.667022 -0.729461,-0.891375 -0.340432,-0.223219 -0.841222,-0.335899 -1.502496,-0.335899 -0.194767,0 -0.452445,0.04389 -0.773036,0.13179 -0.320968,0.08765 -0.632393,0.253528 -0.933645,0.496618 -0.30188,0.24372 -0.559307,0.594334 -0.773286,1.051716 -0.214104,0.458011 -0.320968,1.056619 -0.320968,1.796706 v 8.765465 l -4.1426958,1.26e-4 V 8.0491311 Z"
         id="path1"
         style="stroke-width:1.32439;fill:#abff53;fill-opacity:1" />
      <polygon
         id="polygon5"
         points="71.900727,31.249567 74.093837,31.249567 74.093837,0.73220178 71.900727,0.73220178 71.900727,9.495549e-05 74.93562,9.495549e-05 74.93562,31.981769 71.900727,31.981769 "
         transform="matrix(1.3243901,0,0,1.3243901,-60.569369,-5.733329)" />
    </g>
  </g>
</svg>
